<svg width="256" height="32" viewBox="0 0 256 32" fill="none" xmlns="http://www.w3.org/2000/svg">
<g clip-path="url(#clip0_1_64)">
<path d="M60.74 8.93L57.13 12.54C56.61 12.02 55.84 11.87 55.16 12.15C54.48 12.43 54.04 13.09 54.04 13.82V25.49H48.94V6.91H54.04V7.15C54.63 6.99 55.24 6.91 55.85 6.91C57.68 6.91 59.44 7.63 60.74 8.93Z" fill="#222C2E"/>
<path d="M94.95 18.64L98.26 22.53C95.83 24.6 93.61 25.48 90.84 25.48C87.9 25.52 85.1 24.2 83.25 21.91C82.9 21.46 82.59 20.99 82.32 20.49V20.47C81.96 19.79 81.69 19.08 81.52 18.33V18.29C80.51 13.97 82.71 9.55 86.75 7.73C90.79 5.91 95.55 7.21 98.12 10.82C98.19 10.92 98.25 11.02 98.32 11.11C98.36 11.17 98.4 11.24 98.44 11.3C98.52 11.43 98.6 11.56 98.67 11.7C98.7 11.75 98.73 11.81 98.76 11.86C98.85 12.03 98.94 12.21 99.02 12.39V12.42V12.44H99.03L99.05 12.48L99.06 12.52L99.08 12.56L100.08 14.93L94.94 17.06L94.24 17.35L88.56 19.69C89.21 20.09 89.95 20.28 90.71 20.26C92.24 20.26 93.42 19.91 94.92 18.62L94.95 18.64ZM86.63 15.57L86.82 15.49L89.84 14.24L92.99 12.94C92.99 12.94 92.94 12.89 92.91 12.87C92.2 12.32 91.33 12.02 90.44 12.02C89.94 12.02 89.45 12.12 88.99 12.32C87.68 12.9 86.78 14.13 86.63 15.56V15.57Z" fill="#222C2E"/>
<path d="M74.42 18.64L77.73 22.53C75.3 24.6 73.08 25.48 70.31 25.48C67.37 25.52 64.57 24.2 62.72 21.91C62.37 21.46 62.06 20.99 61.79 20.49V20.47C61.43 19.79 61.16 19.08 60.99 18.33V18.29C59.98 13.97 62.18 9.55 66.22 7.73C70.26 5.91 75.02 7.21 77.59 10.82C77.66 10.92 77.72 11.02 77.79 11.11C77.83 11.17 77.87 11.24 77.91 11.3C77.99 11.43 78.07 11.56 78.14 11.7C78.17 11.75 78.2 11.81 78.23 11.86C78.32 12.03 78.41 12.21 78.49 12.39V12.42V12.44H78.5L78.52 12.48L78.53 12.52L78.55 12.56L79.55 14.93L74.41 17.06L73.71 17.35L68.03 19.69C68.68 20.09 69.42 20.28 70.18 20.26C71.71 20.26 72.89 19.91 74.39 18.62L74.42 18.64ZM66.1 15.57L66.29 15.49L69.31 14.24L72.46 12.94C72.46 12.94 72.41 12.89 72.38 12.87C71.67 12.32 70.8 12.02 69.91 12.02C69.41 12.02 68.92 12.12 68.46 12.32C67.15 12.9 66.25 14.13 66.1 15.56V15.57Z" fill="#222C2E"/>
<path d="M22.51 12.02H24.95V6.92H22.51V0H17.41V6.92H15.93V12.02H17.41V20.49C17.41 23.25 19.65 25.48 22.4 25.48H24.95V20.38H22.51V12.02Z" fill="#222C2E"/>
<path d="M36.82 6.96C35.75 6.96 34.68 7.17 33.69 7.58V0H28.59V15.19V25.52H33.69V15.19C33.69 13.46 35.09 12.06 36.82 12.06C38.55 12.06 39.95 13.46 39.95 15.19V25.52H45.05V15.19C45.05 10.64 41.36 6.96 36.82 6.96Z" fill="#222C2E"/>
<path d="M120.57 12.86C119.19 9.28001 115.75 6.92001 111.91 6.92001C110.46 6.92001 109.02 7.26001 107.73 7.92001C104.6 9.50001 102.63 12.7 102.63 16.21V31.43H107.73V24.5C111.16 26.23 115.3 25.67 118.14 23.09C120.99 20.51 121.95 16.45 120.57 12.87V12.86ZM111.91 20.38C109.6 20.38 107.73 18.51 107.73 16.2C107.73 13.89 109.6 12.02 111.91 12.02C114.22 12.02 116.09 13.89 116.09 16.2C116.09 18.51 114.22 20.38 111.91 20.38Z" fill="#222C2E"/>
<path d="M132.58 6.92001C128.83 6.92001 125.44 9.18001 124 12.65C122.56 16.12 123.36 20.11 126.01 22.77C128.67 25.43 132.66 26.22 136.13 24.78C139.6 23.34 141.86 19.96 141.86 16.2C141.86 11.08 137.7 6.92001 132.58 6.92001ZM132.58 20.38C130.89 20.38 129.36 19.36 128.72 17.8C128.07 16.24 128.43 14.44 129.63 13.24C130.83 12.04 132.62 11.69 134.19 12.33C135.75 12.98 136.77 14.5 136.77 16.19C136.77 18.5 134.9 20.37 132.59 20.37L132.58 20.38Z" fill="#222C2E"/>
<path d="M150.18 6.95999H145.08V25.5H150.18V6.95999Z" fill="#222C2E"/>
<path d="M150.18 0H145.08V5.39H150.18V0Z" fill="#222C2E"/>
<path d="M162.3 6.92001C161.25 6.92001 160.22 7.12001 159.24 7.51001V6.92001H154.14V15.08V25.5H159.24V15.08C159.24 13.39 160.61 12.03 162.29 12.03C163.97 12.03 165.34 13.4 165.34 15.08V25.5H170.44V15.08C170.44 10.58 166.79 6.93001 162.28 6.92001H162.3Z" fill="#222C2E"/>
<path d="M179.74 0H174.64V6.92H179.74V0Z" fill="#222C2E"/>
<path d="M179.75 12.02H182.19V6.92001H173.17V12.02H174.65V20.49C174.65 23.25 176.89 25.48 179.64 25.48H182.19V20.38H179.75V12.02Z" fill="#222C2E"/>
<path d="M193.31 18.21C194.54 19.44 194.91 21.28 194.26 22.89C193.61 24.5 192.05 25.56 190.32 25.58H184.98V21.86H190.26C190.59 21.86 190.85 21.59 190.85 21.27C190.85 20.95 190.58 20.68 190.26 20.68H188.04C185.65 20.68 183.72 18.75 183.72 16.36C183.72 13.97 185.65 12.04 188.04 12.04H193.32V15.76H188.04C187.71 15.76 187.44 16.03 187.44 16.36C187.44 16.69 187.71 16.96 188.04 16.96H190.26C191.41 16.96 192.5 17.41 193.31 18.22V18.21Z" fill="#222C2E"/>
<path d="M200.84 15.75V21.85H202.62V25.57H200.76C198.75 25.57 197.12 23.94 197.12 21.93V15.75H196.04V12.03H197.12V6.92999H200.84V12.03H202.62V15.75H200.84Z" fill="#222C2E"/>
<path d="M216.93 12.03V25.59H213.21V25.16C211.38 25.9 209.29 25.68 207.65 24.58C206.01 23.47 205.03 21.62 205.03 19.64V12.03H208.75V19.64C208.75 20.87 209.75 21.87 210.98 21.87C212.21 21.87 213.21 20.87 213.21 19.64V12.03H216.93Z" fill="#222C2E"/>
<path d="M232.71 6.92999V25.59H228.99V24.86C226.14 26.3 222.67 25.55 220.67 23.07C218.66 20.59 218.66 17.04 220.67 14.56C222.68 12.08 226.14 11.33 228.99 12.77V6.92999H232.71ZM228.98 18.82C228.98 17.13 227.61 15.77 225.93 15.77C224.25 15.77 222.88 17.14 222.88 18.82C222.88 20.5 224.25 21.87 225.93 21.87C227.61 21.87 228.98 20.5 228.98 18.82Z" fill="#222C2E"/>
<path d="M235.6 10.86V6.92999H239.32V10.86H235.6ZM235.6 25.59V12.06H239.32V25.59H235.6Z" fill="#222C2E"/>
<path d="M255.08 18.81C255.08 21.55 253.43 24.02 250.9 25.07C248.37 26.12 245.45 25.54 243.52 23.6C241.58 21.66 241 18.75 242.05 16.22C243.1 13.69 245.57 12.04 248.31 12.04C252.05 12.04 255.08 15.08 255.09 18.82L255.08 18.81ZM248.3 21.86C249.98 21.86 251.35 20.49 251.35 18.81C251.35 17.58 250.61 16.46 249.47 15.99C248.33 15.52 247.02 15.78 246.14 16.65C245.27 17.52 245.01 18.84 245.48 19.98C245.95 21.12 247.07 21.86 248.3 21.86Z" fill="#222C2E"/>
<path d="M8.77 19.41H7.85C7.24 19.41 6.74 18.91 6.74 18.3V16.55C6.74 16.55 6.74 16.51 6.74 16.49V14.8C6.74 14.19 7.24 13.69 7.85 13.69H8.77C10.7 13.69 12.37 12.13 12.3 10.2C12.24 8.44 10.82 7.02 9.05 6.95C7.12 6.88 5.56 8.55 5.56 10.48V12.07C5.56 12.68 5.06 13.18 4.45 13.18H3.51C1.75 13.18 0.18 14.47 0.00999988 16.22C-0.18 18.23 1.39 19.92 3.36 19.92C3.56 19.92 3.74 19.89 3.93 19.86H4.44C5.05 19.86 5.55 20.36 5.55 20.97V22.61C5.55 24.54 7.11 26.21 9.04 26.14C10.8 26.08 12.22 24.66 12.29 22.89C12.36 20.96 10.69 19.4 8.76 19.4L8.77 19.41Z" fill="#E0242B"/>
<path d="M253.24 6.93001V7.17001H252.78V8.37001H252.49V7.17001H252.03V6.93001H253.24ZM254.79 8.37001L254.74 7.52001C254.74 7.41001 254.74 7.27001 254.73 7.12001H254.71C254.67 7.25001 254.63 7.42001 254.59 7.55001L254.33 8.35001H254.03L253.77 7.53001C253.74 7.42001 253.7 7.25001 253.67 7.12001H253.65C253.65 7.25001 253.65 7.39001 253.64 7.52001L253.59 8.37001H253.32L253.43 6.93001H253.86L254.11 7.63001C254.14 7.74001 254.17 7.85001 254.21 7.99001C254.25 7.86001 254.28 7.74001 254.31 7.63001L254.56 6.92001H254.97L255.08 8.36001H254.79V8.37001Z" fill="#222C2E"/>
</g>
<defs>
<clipPath id="clip0_1_64">
<rect width="255.08" height="31.42" fill="white"/>
</clipPath>
</defs>
</svg>
